<?xml version="1.0" encoding="UTF-8"?>
<!DOCTYPE svg PUBLIC "-//W3C//DTD SVG 1.1//EN" "http://www.w3.org/Graphics/SVG/1.1/DTD/svg11.dtd">
<svg xmlns="http://www.w3.org/2000/svg" version="1.1" width="512px" height="512px" style="shape-rendering:geometricPrecision; text-rendering:geometricPrecision; image-rendering:optimizeQuality; fill-rule:evenodd; clip-rule:evenodd" xmlns:xlink="http://www.w3.org/1999/xlink">
<g><path style="opacity:0.992" fill="#04baff" d="M 341.5,63.5 C 327.5,77.8333 313.5,92.1667 299.5,106.5C 282.759,105.255 275.259,96.2554 277,79.5C 278.778,71.4245 283.611,66.2579 291.5,64C 308.163,63.5001 324.83,63.3334 341.5,63.5 Z"/></g>
<g><path style="opacity:0.989" fill="#07b6ff" d="M 341.5,63.5 C 350.5,63.5 359.5,63.5 368.5,63.5C 355.035,77.4652 341.369,91.2985 327.5,105C 330.695,105.181 333.695,105.681 336.5,106.5C 324.167,106.5 311.833,106.5 299.5,106.5C 313.5,92.1667 327.5,77.8333 341.5,63.5 Z"/></g>
<g><path style="opacity:0.994" fill="#0ab3ff" d="M 368.5,63.5 C 382.833,63.5 397.167,63.5 411.5,63.5C 397.5,77.8333 383.5,92.1667 369.5,106.5C 358.5,106.5 347.5,106.5 336.5,106.5C 333.695,105.681 330.695,105.181 327.5,105C 341.369,91.2985 355.035,77.4652 368.5,63.5 Z"/></g>
<g><path style="opacity:0.989" fill="#0dafff" d="M 411.5,63.5 C 418.841,63.3337 426.174,63.5003 433.5,64C 434.416,64.2784 435.082,64.7784 435.5,65.5C 372.833,128.833 309.833,191.833 246.5,254.5C 240.967,250.571 235.3,246.904 229.5,243.5C 230.552,243.649 231.552,243.483 232.5,243C 242.42,232.576 252.754,222.743 263.5,213.5C 264.117,213.611 264.617,213.944 265,214.5C 300.833,178.667 336.667,142.833 372.5,107C 371.552,106.517 370.552,106.351 369.5,106.5C 383.5,92.1667 397.5,77.8333 411.5,63.5 Z"/></g>
<g><path style="opacity:0.993" fill="#10acff" d="M 435.5,65.5 C 441.154,67.6561 444.988,71.6561 447,77.5C 447.5,89.1619 447.667,100.829 447.5,112.5C 433.167,126.5 418.833,140.5 404.5,154.5C 404.666,149.156 404.499,143.823 404,138.5C 368.167,174.333 332.333,210.167 296.5,246C 299.146,248.802 301.146,251.968 302.5,255.5C 292.554,267.114 281.887,278.114 270.5,288.5C 264.959,275.413 256.959,264.079 246.5,254.5C 309.833,191.833 372.833,128.833 435.5,65.5 Z"/></g>
<g><path style="opacity:0.992" fill="#16a5ff" d="M 447.5,112.5 C 447.5,132.167 447.5,151.833 447.5,171.5C 433.167,185.5 418.833,199.5 404.5,213.5C 404.5,193.833 404.5,174.167 404.5,154.5C 418.833,140.5 433.167,126.5 447.5,112.5 Z"/></g>
<g><path style="opacity:0.988" fill="#1aa0ff" d="M 447.5,171.5 C 447.667,187.503 447.5,203.503 447,219.5C 441.212,232.473 431.379,236.973 417.5,233C 409.04,229.245 404.706,222.745 404.5,213.5C 418.833,199.5 433.167,185.5 447.5,171.5 Z"/></g>
<g><path style="opacity:0.98" fill="#02bdff" d="M 182.5,191.5 C 143.117,231.883 103.117,271.55 62.5,310.5C 68.2532,259.466 94.2532,222.966 140.5,201C 154.006,195.623 168.006,192.457 182.5,191.5 Z"/></g>
<g><path style="opacity:0.989" fill="#05b9ff" d="M 182.5,191.5 C 192.199,191.275 201.866,191.608 211.5,192.5C 211.631,193.239 211.464,193.906 211,194.5C 196.631,208.701 182.465,223.035 168.5,237.5C 139.167,247.5 119.5,267.167 109.5,296.5C 94.1667,311.167 79.1667,326.167 64.5,341.5C 63.6862,339.369 63.1862,337.036 63,334.5C 62.5003,326.507 62.3336,318.507 62.5,310.5C 103.117,271.55 143.117,231.883 182.5,191.5 Z"/></g>
<g><path style="opacity:0.986" fill="#07b6ff" d="M 211.5,192.5 C 219.176,193.628 226.509,195.628 233.5,198.5C 221.833,210.5 210.167,222.5 198.5,234.5C 188.372,234.35 178.372,235.35 168.5,237.5C 182.465,223.035 196.631,208.701 211,194.5C 211.464,193.906 211.631,193.239 211.5,192.5 Z"/></g>
<g><path style="opacity:0.985" fill="#0ab3ff" d="M 233.5,198.5 C 244.365,201.932 254.365,206.932 263.5,213.5C 252.754,222.743 242.42,232.576 232.5,243C 231.552,243.483 230.552,243.649 229.5,243.5C 219.465,239.079 209.132,236.079 198.5,234.5C 210.167,222.5 221.833,210.5 233.5,198.5 Z"/></g>
<g><path style="opacity:0.986" fill="#16a5ff" d="M 302.5,255.5 C 310.656,268.296 315.656,282.296 317.5,297.5C 317.657,298.873 317.49,300.207 317,301.5C 302.667,315.833 288.333,330.167 274,344.5C 273.536,343.906 273.369,343.239 273.5,342.5C 278.097,324.189 277.097,306.189 270.5,288.5C 281.887,278.114 292.554,267.114 302.5,255.5 Z"/></g>
<g><path style="opacity:0.989" fill="#07b7ff" d="M 109.5,296.5 C 107.375,306.38 106.375,316.38 106.5,326.5C 94.7015,337.798 83.0349,349.298 71.5,361C 70.9056,361.464 70.2389,361.631 69.5,361.5C 66.604,355.25 64.9373,348.583 64.5,341.5C 79.1667,326.167 94.1667,311.167 109.5,296.5 Z"/></g>
<g><path style="opacity:0.99" fill="#1b9fff" d="M 317.5,297.5 C 320.983,318.283 319.816,338.949 314,359.5C 313.058,362.374 311.891,365.04 310.5,367.5C 286.162,390.833 262.829,414.5 240.5,438.5C 217.641,448.48 193.974,451.147 169.5,446.5C 170.552,446.649 171.552,446.483 172.5,446C 187.167,431.333 201.833,416.667 216.5,402C 215.906,401.536 215.239,401.369 214.5,401.5C 243.833,391.5 263.5,371.833 273.5,342.5C 273.369,343.239 273.536,343.906 274,344.5C 288.333,330.167 302.667,315.833 317,301.5C 317.49,300.207 317.657,298.873 317.5,297.5 Z"/></g>
<g><path style="opacity:0.986" fill="#0bb2ff" d="M 106.5,326.5 C 108.726,344.293 115.393,360.293 126.5,374.5C 116.167,385.167 105.833,395.833 95.5,406.5C 83.5071,393.526 74.8405,378.526 69.5,361.5C 70.2389,361.631 70.9056,361.464 71.5,361C 83.0349,349.298 94.7015,337.798 106.5,326.5 Z"/></g>
<g><path style="opacity:0.956" fill="#1e9bff" d="M 310.5,367.5 C 297.22,401.113 273.886,424.78 240.5,438.5C 262.829,414.5 286.162,390.833 310.5,367.5 Z"/></g>
<g><path style="opacity:0.983" fill="#11abff" d="M 126.5,374.5 C 136.079,384.959 147.413,392.959 160.5,398.5C 150.202,409.298 139.702,419.965 129,430.5C 128.536,431.094 128.369,431.761 128.5,432.5C 115.826,425.992 104.826,417.325 95.5,406.5C 105.833,395.833 116.167,385.167 126.5,374.5 Z"/></g>
<g><path style="opacity:0.986" fill="#16a5ff" d="M 160.5,398.5 C 178.189,405.097 196.189,406.097 214.5,401.5C 215.239,401.369 215.906,401.536 216.5,402C 201.833,416.667 187.167,431.333 172.5,446C 171.552,446.483 170.552,446.649 169.5,446.5C 154.801,444.601 141.134,439.934 128.5,432.5C 128.369,431.761 128.536,431.094 129,430.5C 139.702,419.965 150.202,409.298 160.5,398.5 Z"/></g>
</svg>
